<svg width="155" height="243" viewBox="0 0 155 243" fill="none" xmlns="http://www.w3.org/2000/svg">
<g opacity="0.1">
<path d="M62.4001 227.278L71.6898 243C129.082 218.542 151.532 172.65 138.52 149.046C125.508 125.441 132.664 145.674 132.664 145.674C124.916 188.076 112.799 208.269 62.4001 227.278Z" fill="#CC1017"/>
<path d="M12.9654 221.883C78.6756 189.511 113.157 116.674 67.6154 47.209C87.3632 123.475 73.8697 178.873 1.53696 207.198L12.9654 221.883Z" fill="#CC1017"/>
<path d="M154.633 190.002C111.064 191.288 93.5562 200.488 68.9704 238.489L62.4001 227.278C74.7614 191.534 100.135 173.325 148.279 174.673L154.633 190.002Z" fill="#EF373E"/>
<path d="M136.993 147.151C85.5963 117.433 30.2957 156.593 10.7778 218.639L0 205.303C36.5588 108.86 116.008 113.86 131.622 133.418L136.993 147.151Z" fill="#EF373E"/>
<path d="M29.8734 0L40.2829 19.5581C56.3322 31.5826 61.5063 37.9989 68.2585 49.2323C60.4887 24.5582 51.5443 14.1659 29.8734 0Z" fill="#EF373E"/>
</g>
</svg>
