<svg width="131" height="205" viewBox="0 0 131 205" fill="none" xmlns="http://www.w3.org/2000/svg">
<g opacity="0.1">
<path d="M52.6418 191.737L60.4789 205C108.896 184.367 127.835 145.652 116.858 125.738C105.881 105.825 111.918 122.893 111.918 122.893C105.382 158.665 95.1591 175.7 52.6418 191.737Z" fill="#CC1017"/>
<path d="M10.938 187.185C66.3725 159.875 95.4619 98.4284 57.042 39.8264C73.7016 104.166 62.3182 150.901 1.29675 174.797L10.938 187.185Z" fill="#CC1017"/>
<path d="M130.452 160.29C93.6957 161.375 78.9258 169.136 58.1847 201.195L52.6418 191.737C63.0701 161.582 84.4755 146.221 125.091 147.358L130.452 160.29Z" fill="#EF373E"/>
<path d="M115.571 124.139C72.2109 99.0693 25.5581 132.105 9.09239 184.448L0 173.198C30.8417 91.8367 97.8665 96.0548 111.039 112.554L115.571 124.139Z" fill="#EF373E"/>
<path d="M25.2019 0L33.9836 16.4996C47.5231 26.6438 51.8881 32.0567 57.5844 41.5335C51.0297 20.7178 43.484 11.9506 25.2019 0Z" fill="#EF373E"/>
</g>
</svg>
