<svg width="43" height="18" viewBox="0 0 43 18" fill="none" xmlns="http://www.w3.org/2000/svg">
<path d="M11.8793 10.7485C12.2852 11.3168 12.5288 11.9663 12.5288 12.6969C12.5288 13.2652 12.3664 13.8336 12.1228 14.4019C11.7981 14.9702 11.3922 15.3761 10.905 15.7821C9.76841 16.5939 8.46942 16.9999 6.92686 16.9999C6.19618 16.9999 5.46549 16.9187 4.81599 16.6751C4.1665 16.4316 3.517 16.188 3.02988 15.7821C2.13682 15.1326 1.56851 14.2395 1.32495 13.2653L2.38038 12.6969C2.46157 13.59 2.86751 14.3207 3.67938 14.889C4.08531 15.2137 4.57243 15.4573 5.14074 15.6197C5.70905 15.7821 6.27737 15.8633 6.92686 15.8633C8.22586 15.8633 9.28129 15.5385 10.1743 14.889C11.0674 14.2395 11.4733 13.5088 11.4733 12.6969C11.4733 12.2098 11.311 11.7227 10.9862 11.3168C10.6615 10.9108 10.2555 10.5049 9.68722 10.1802C9.11891 9.93659 8.22585 9.69302 6.84567 9.53064C6.76448 9.53064 6.35855 9.44947 5.62787 9.36829C4.89718 9.2871 4.32887 9.04353 3.84175 8.79997C3.02988 8.39403 2.46157 7.90691 1.97444 7.25742C1.48732 6.60792 1.32495 5.95842 1.32495 5.22774C1.32495 4.65943 1.48732 4.09111 1.81207 3.5228C2.13682 3.03568 2.54276 2.54855 3.11107 2.14261C3.67938 1.73668 4.24769 1.49313 4.89719 1.24957C5.54668 1.00601 6.27737 0.924805 7.00805 0.924805C8.46942 0.924805 9.8496 1.33074 10.9862 2.14261C11.9605 2.8733 12.4476 3.68517 12.61 4.57823L11.5545 5.14654C11.5545 4.74061 11.3922 4.33468 11.2298 4.00993C10.9862 3.60399 10.6615 3.27923 10.3367 2.95448C9.93079 2.62973 9.36247 2.38618 8.87535 2.2238C8.30704 2.06143 7.73873 1.98025 7.08924 1.98025C6.43974 1.98025 5.87143 2.06143 5.30312 2.2238C4.73481 2.38618 4.24769 2.62973 3.84175 2.95448C3.43582 3.27923 3.11107 3.60399 2.86751 4.00993C2.62395 4.41587 2.54276 4.74061 2.54276 5.14654C2.54276 5.63367 2.70513 6.12078 3.11107 6.6079C3.517 7.09503 3.92294 7.50098 4.49125 7.74454C4.816 7.90692 5.22193 7.9881 5.62787 8.06929C6.0338 8.15047 6.60211 8.23165 7.25161 8.31284C7.3328 8.31284 7.65754 8.39403 8.06348 8.39403C8.5506 8.47522 8.95654 8.55639 9.36248 8.63758C9.76841 8.71877 10.1743 8.88114 10.4179 9.04352C10.905 9.61183 11.4733 10.099 11.8793 10.7485Z" fill="#FCFCFC" stroke="#FCFCFC" stroke-miterlimit="10"/>
<path d="M22.9207 12.291C25.0316 14.4019 26.4929 15.8632 27.386 16.8375H25.8434L24.0573 15.1326C23.3266 15.7009 22.5959 16.188 22.0276 16.5127C21.3781 16.8375 20.7286 16.9999 20.0791 16.9999C19.1049 16.9999 18.293 16.8375 17.4812 16.4316C16.6693 16.0256 16.101 15.5385 15.6139 14.889C15.1267 14.2395 14.9644 13.5088 14.9644 12.7781C14.9644 11.8039 15.2079 10.992 15.7762 10.4237C16.2633 9.8554 16.994 9.28709 17.9683 8.79997L17.4812 8.31284C17.0752 7.9069 16.7505 7.41979 16.4257 6.85148C16.101 6.28317 15.9386 5.63368 15.9386 4.90299C15.9386 4.33468 16.101 3.84754 16.2634 3.36042C16.5069 2.8733 16.7505 2.46738 17.1564 2.06144C17.5623 1.65551 17.9683 1.41195 18.4554 1.24957C18.9425 1.0872 19.5108 0.924805 19.998 0.924805C20.5663 0.924805 21.0534 1.00601 21.6217 1.24957C22.1088 1.41195 22.5959 1.7367 23.0019 2.06144C23.4078 2.46738 23.6514 2.8733 23.8949 3.36042C24.1385 3.84754 24.2197 4.33468 24.2197 4.90299C24.2197 5.71486 23.8949 6.44554 23.1643 7.17622C22.8395 7.50097 22.5148 7.82573 22.1088 8.06929L21.297 7.25742C21.8653 6.93267 22.2712 6.52674 22.5959 6.1208C22.9207 5.71486 23.0831 5.30893 23.0831 4.90299C23.0831 4.49706 23.0019 4.17229 22.8395 3.84755C22.6771 3.5228 22.4336 3.19804 22.19 2.95448C21.6217 2.38617 20.891 2.14261 19.998 2.14261C19.1861 2.14261 18.4554 2.38617 17.8059 2.95448C17.2376 3.44161 16.9128 4.17229 16.9128 4.98416C16.9128 5.55247 16.994 6.03961 17.2376 6.44554C17.4812 6.93267 17.7247 7.25741 18.0495 7.50097C19.2673 8.5564 20.891 10.1801 22.9207 12.291ZM21.6217 15.4573C22.19 15.1326 22.6771 14.8078 23.3266 14.3207L18.7802 9.69303C17.8059 10.099 17.1564 10.5861 16.6693 10.992C16.2634 11.4792 16.0198 12.0474 16.0198 12.7781C16.0198 13.3464 16.1822 13.8336 16.5881 14.3207C16.9128 14.8078 17.4 15.1326 18.0495 15.4573C18.699 15.7009 19.3485 15.8633 20.0791 15.8633C20.5663 15.8633 21.1346 15.7009 21.6217 15.4573ZM28.1167 11.8851L26.8989 12.8593L26.087 12.0475L26.5741 11.7227L27.3048 11.0732L28.1167 11.8851Z" fill="#FCFCFC" stroke="#FCFCFC" stroke-miterlimit="10"/>
<path d="M40.863 10.0176C41.3501 10.6671 41.6749 11.479 41.6749 12.3721C41.6749 12.9404 41.5125 13.5087 41.2689 13.9958C41.0254 14.5641 40.6194 15.0512 40.2135 15.4572C39.7264 15.8631 39.1581 16.1879 38.5086 16.4314C37.8591 16.675 37.1284 16.7562 36.4789 16.7562H30.7146V1.00586H35.1799C36.6413 1.00586 37.7779 1.4118 38.6709 2.22367C39.0769 2.6296 39.4016 3.03554 39.564 3.52267C39.7264 4.00979 39.8887 4.4969 39.8887 4.98402C39.8887 5.63352 39.7264 6.20184 39.4016 6.77015C39.0769 7.33846 38.7521 7.7444 38.265 7.98796L38.0214 8.15034C38.3462 8.23153 38.5898 8.31271 38.8333 8.47509C39.7264 8.88102 40.3759 9.36814 40.863 10.0176ZM31.77 7.90677H35.0987C35.5046 7.90677 35.9106 7.90676 36.1541 7.82557C36.4789 7.74439 36.7224 7.66321 37.0472 7.58202C37.4531 7.41965 37.8591 7.09489 38.265 6.68896C38.6709 6.28302 38.8333 5.71471 38.8333 5.06522C38.8333 4.57809 38.6709 4.09099 38.4274 3.68505C38.1838 3.27911 37.6967 2.87316 37.2096 2.6296C36.6413 2.38604 35.9918 2.22367 35.1799 2.22367H31.77V7.90677ZM38.6709 15.2136C39.3204 14.8889 39.8076 14.4829 40.1323 13.9958C40.4571 13.5087 40.6194 12.9404 40.6194 12.3721C40.6194 11.7226 40.4571 11.1542 40.0511 10.6671C39.6452 10.18 39.1581 9.77407 38.6709 9.53051C37.8591 9.20576 36.8848 9.04338 35.7482 9.04338H31.8512V15.7007H36.4789C37.2908 15.7007 38.0214 15.5384 38.6709 15.2136Z" fill="#FCFCFC" stroke="#FCFCFC" stroke-miterlimit="10"/>
</svg>
