<svg width="326" height="70" viewBox="0 0 326 70" fill="none" xmlns="http://www.w3.org/2000/svg">
<path d="M17.184 69.216H17.088C11.648 69.216 7.424 67.392 4.416 63.744C1.472 60.032 0 55.584 0 50.4C0 42.72 2.336 35.904 7.008 29.952C11.744 24 17.536 21.024 24.384 21.024C30.144 21.024 34.432 22.944 37.248 26.784C40.064 30.56 41.472 35.072 41.472 40.32C41.472 44.672 40.512 49.024 38.592 53.376C36.736 57.728 33.888 61.472 30.048 64.608C26.208 67.68 21.92 69.216 17.184 69.216ZM17.568 65.472H17.664C22.784 65.472 27.264 62.88 31.104 57.696C35.008 52.448 36.96 46.624 36.96 40.224C36.96 38.56 36.736 36.896 36.288 35.232C35.904 33.568 35.232 31.936 34.272 30.336C33.376 28.672 32.032 27.328 30.24 26.304C28.448 25.28 26.368 24.768 24 24.768C18.56 24.768 13.952 27.36 10.176 32.544C6.4 37.664 4.512 43.488 4.512 50.016C4.512 54.496 5.696 58.208 8.064 61.152C10.496 64.032 13.664 65.472 17.568 65.472Z" fill="#FFF0F0"/>
<path d="M85.44 22.08H89.76L83.328 55.776C82.56 60 81.952 64.128 81.504 68.16H77.472L78.912 58.656H78.72C76.8 61.792 74.336 64.352 71.328 66.336C68.384 68.256 65.344 69.216 62.208 69.216C60.736 69.216 59.36 69.024 58.08 68.64C56.8 68.32 55.488 67.712 54.144 66.816C52.8 65.92 51.744 64.512 50.976 62.592C50.208 60.672 49.824 58.336 49.824 55.584C49.824 53.728 50.112 51.296 50.688 48.288L55.68 22.08H60L55.008 48.384C54.432 51.264 54.144 53.664 54.144 55.584C54.144 62.048 57.152 65.28 63.168 65.28C66.624 65.28 70.144 63.52 73.728 60C77.376 56.48 79.68 52.192 80.64 47.136L85.44 22.08Z" fill="#FFF0F0"/>
<path d="M100.882 68.16H96.5625L102.515 37.056C103.411 31.936 104.178 26.944 104.818 22.08H108.755C107.795 28.736 107.283 32.192 107.218 32.448H107.507C109.043 29.056 110.995 26.304 113.363 24.192C115.73 22.08 118.355 21.024 121.235 21.024C122.003 21.024 122.706 21.088 123.346 21.216L122.483 25.632C121.843 25.504 121.138 25.44 120.37 25.44C117.362 25.44 114.323 27.424 111.251 31.392C108.179 35.296 106.131 40.096 105.106 45.792L100.882 68.16Z" fill="#FFF0F0"/>
<path d="M122.109 66.24L123.645 62.688C126.205 64.48 129.085 65.376 132.285 65.376C135.357 65.376 137.885 64.448 139.869 62.592C141.853 60.672 142.845 58.4 142.845 55.776C142.845 53.536 142.333 51.68 141.309 50.208C140.349 48.672 138.589 47.136 136.029 45.6C131.101 42.656 128.637 38.848 128.637 34.176C128.637 30.592 130.013 27.52 132.765 24.96C135.517 22.336 138.941 21.024 143.037 21.024C146.557 21.024 149.309 21.76 151.293 23.232L149.661 26.88C147.485 25.472 145.117 24.768 142.557 24.768C139.805 24.768 137.501 25.632 135.645 27.36C133.853 29.024 132.957 31.072 132.957 33.504C132.957 35.552 133.469 37.248 134.493 38.592C135.581 39.936 137.309 41.344 139.677 42.816C144.733 45.888 147.261 49.824 147.261 54.624C147.261 59.04 145.757 62.56 142.749 65.184C139.805 67.808 136.189 69.12 131.901 69.12C127.677 69.12 124.413 68.16 122.109 66.24Z" fill="#FFF0F0"/>
<path d="M185.921 62.016L187.264 65.472C183.488 67.904 178.816 69.12 173.249 69.12C167.809 69.12 163.745 67.392 161.057 63.936C158.433 60.48 157.12 56.224 157.12 51.168C157.12 46.56 158.145 41.952 160.193 37.344C162.305 32.736 165.249 28.864 169.025 25.728C172.865 22.592 176.96 21.024 181.312 21.024C185.216 21.024 188.16 22.048 190.145 24.096C192.193 26.144 193.217 28.64 193.217 31.584C193.217 41.568 182.816 46.432 162.016 46.176C161.696 47.328 161.569 49.12 161.633 51.552C161.761 53.984 162.081 55.968 162.592 57.504C164.512 62.752 168.257 65.376 173.824 65.376C178.304 65.376 182.337 64.256 185.921 62.016ZM188.801 31.872V31.776C188.801 29.536 188.033 27.808 186.497 26.592C185.025 25.376 183.04 24.768 180.544 24.768C176.576 24.768 172.928 26.528 169.6 30.048C166.336 33.504 164.033 37.664 162.689 42.528C180.097 42.784 188.801 39.232 188.801 31.872Z" fill="#FFF0F0"/>
<path d="M202.226 68.16H197.906L210.962 0H215.282L202.226 68.16Z" fill="#FFF0F0"/>
<path d="M219.32 22.08H223.639L228.728 52.128C229.752 58.08 230.296 61.6 230.359 62.688H230.648C232.184 59.232 233.783 56.032 235.447 53.088L252.439 22.08H257.048L231.415 68.16H227.383L219.32 22.08Z" fill="#FFF0F0"/>
<path d="M285.952 62.016L287.296 65.472C283.52 67.904 278.848 69.12 273.28 69.12C267.84 69.12 263.776 67.392 261.088 63.936C258.464 60.48 257.152 56.224 257.152 51.168C257.152 46.56 258.176 41.952 260.224 37.344C262.336 32.736 265.28 28.864 269.056 25.728C272.896 22.592 276.992 21.024 281.344 21.024C285.248 21.024 288.192 22.048 290.176 24.096C292.224 26.144 293.248 28.64 293.248 31.584C293.248 41.568 282.848 46.432 262.048 46.176C261.728 47.328 261.6 49.12 261.664 51.552C261.792 53.984 262.112 55.968 262.624 57.504C264.544 62.752 268.288 65.376 273.856 65.376C278.336 65.376 282.368 64.256 285.952 62.016ZM288.832 31.872V31.776C288.832 29.536 288.064 27.808 286.528 26.592C285.056 25.376 283.072 24.768 280.576 24.768C276.608 24.768 272.96 26.528 269.632 30.048C266.368 33.504 264.064 37.664 262.72 42.528C280.128 42.784 288.832 39.232 288.832 31.872Z" fill="#FFF0F0"/>
<path d="M295.922 66.24L297.457 62.688C300.017 64.48 302.897 65.376 306.098 65.376C309.169 65.376 311.697 64.448 313.681 62.592C315.665 60.672 316.658 58.4 316.658 55.776C316.658 53.536 316.145 51.68 315.121 50.208C314.161 48.672 312.401 47.136 309.841 45.6C304.913 42.656 302.449 38.848 302.449 34.176C302.449 30.592 303.826 27.52 306.578 24.96C309.33 22.336 312.753 21.024 316.849 21.024C320.369 21.024 323.121 21.76 325.105 23.232L323.474 26.88C321.298 25.472 318.93 24.768 316.37 24.768C313.617 24.768 311.313 25.632 309.457 27.36C307.665 29.024 306.77 31.072 306.77 33.504C306.77 35.552 307.282 37.248 308.306 38.592C309.394 39.936 311.121 41.344 313.49 42.816C318.546 45.888 321.073 49.824 321.073 54.624C321.073 59.04 319.569 62.56 316.561 65.184C313.617 67.808 310.001 69.12 305.714 69.12C301.49 69.12 298.225 68.16 295.922 66.24Z" fill="#FFF0F0"/>
</svg>
