<svg width="31" height="28" viewBox="0 0 31 28" fill="none" xmlns="http://www.w3.org/2000/svg">
<path d="M15.4593 19.0605H15.4414C11.8484 19.0605 8.21385 19.3925 4.61207 20.0472C4.00991 20.1566 3.65816 20.7837 3.86743 21.3588L5.42759 25.6465C5.74892 26.5296 6.59627 27.123 7.53611 27.123H23.3668C24.3044 27.123 25.1511 26.5316 25.4737 25.6511L27.0451 21.3619C27.2561 20.786 26.9038 20.1571 26.3003 20.0479C22.686 19.3939 19.0473 19.0617 15.4593 19.0605Z" fill="#FCFCFC"/>
<path fill-rule="evenodd" clip-rule="evenodd" d="M29.8362 10.9228C30.0777 10.9839 30.2819 11.1446 30.3982 11.3648C30.5145 11.5851 30.532 11.8444 30.4463 12.0782L28.3885 17.6951C28.2183 18.1597 27.7339 18.4292 27.2479 18.3363C23.3224 17.5867 19.3628 17.2054 15.4599 17.2042H15.4414C11.5361 17.2042 7.58367 17.5847 3.67505 18.3341C3.18787 18.4274 2.70231 18.157 2.53269 17.6908L0.553021 12.2503C0.467864 12.0163 0.485927 11.7571 0.602579 11.5372C0.71923 11.3172 0.923679 11.1571 1.16519 11.0963L1.94176 10.9009C4.22312 10.3272 6.53692 9.89735 8.8669 9.61138C9.52867 9.50701 9.91658 9.46877 10.6264 9.42312C13.8667 9.12688 17.1303 9.10747 20.3736 9.36441C21.0735 9.39017 21.4557 9.43592 22.1331 9.53115C24.7263 9.81741 27.3015 10.2811 29.8362 10.9228Z" fill="#FCFCFC"/>
<path d="M22.1331 9.53115V7.5096C22.1331 3.85211 19.1575 0.876465 15.5 0.876465C11.8425 0.876465 8.8669 3.85205 8.8669 7.5096V9.61138C9.52867 9.50701 9.91658 9.46877 10.6264 9.42312V7.5096C10.6264 4.82227 12.8127 2.63592 15.5001 2.63592C18.1874 2.63592 20.3737 4.82221 20.3737 7.5096L20.3736 9.36441C21.0735 9.39017 21.4557 9.43592 22.1331 9.53115Z" fill="#FCFCFC"/>
</svg>
