<svg width="25" height="25" viewBox="0 0 25 25" fill="none" xmlns="http://www.w3.org/2000/svg">
<path d="M18.7249 7.20597C18.3749 6.73568 17.6999 6.61191 17.1999 6.95845C16.7249 7.30498 16.5999 7.9733 16.9499 8.46835C17.7999 9.63171 18.2499 11.0179 18.2499 12.4782C18.2499 13.9386 17.7999 15.3248 16.9499 16.4881C16.5999 16.9584 16.6999 17.6515 17.1999 17.9981C17.3999 18.1466 17.6249 18.1961 17.8249 18.1961C18.1499 18.1961 18.4999 18.0476 18.6999 17.7505C19.8249 16.2159 20.4249 14.3842 20.4249 12.4782C20.4499 10.5723 19.8499 8.76538 18.7249 7.20597Z" fill="#FCFCFC"/>
<path d="M21.5001 4.38413C21.1251 3.91383 20.4501 3.83958 19.9751 4.21086C19.5001 4.58215 19.4251 5.25047 19.8001 5.72076C21.3751 7.65146 22.2001 9.97819 22.2001 12.4534C22.2001 14.9287 21.3751 17.2554 19.8001 19.1861C19.4251 19.6564 19.5001 20.3247 19.9751 20.696C20.1751 20.8445 20.4251 20.9435 20.6501 20.9435C20.9751 20.9435 21.2751 20.795 21.5001 20.5475C23.3501 18.2703 24.3751 15.399 24.3751 12.4534C24.3751 9.50789 23.3501 6.68611 21.5001 4.38413Z" fill="#FCFCFC"/>
<path d="M14.125 2.55245C13.85 2.42869 13.55 2.45344 13.3 2.62671L5.8 8.24552H1.4C0.975 8.24552 0.625 8.59205 0.625 9.01285V15.9435C0.625 16.3643 0.975 16.7109 1.4 16.7109H5.8L13.325 22.3297C13.45 22.4287 13.625 22.4782 13.8 22.4782C13.925 22.4782 14.025 22.4534 14.15 22.4039C14.425 22.2802 14.575 22.0079 14.575 21.7109V3.24552C14.575 2.94849 14.4 2.67621 14.125 2.55245Z" fill="#FCFCFC"/>
</svg>
