<svg width="31" height="30" viewBox="0 0 31 30" fill="none" xmlns="http://www.w3.org/2000/svg">
<g clip-path="url(#clip0)">
<path d="M11.75 1.875C5.53625 1.875 0.5 6.07313 0.5 11.25C0.5 14.235 2.18375 16.8825 4.79563 18.5963L4.16681 19.8539C3.87522 20.4371 4.46916 21.0671 5.06851 20.8104L7.35313 19.8319C8.21938 20.1394 9.11938 20.3925 10.0813 20.5106C9.95 19.9387 9.875 19.3519 9.875 18.75C9.875 13.5806 14.9206 9.375 21.125 9.375C21.6931 9.375 22.2481 9.42188 22.7956 9.48937C21.8056 5.15437 17.24 1.875 11.75 1.875ZM8 8.90625C7.22375 8.90625 6.59375 8.27625 6.59375 7.5C6.59375 6.72375 7.22375 6.09375 8 6.09375C8.77625 6.09375 9.40625 6.72375 9.40625 7.5C9.40625 8.27625 8.77625 8.90625 8 8.90625ZM15.5 8.90625C14.7238 8.90625 14.0938 8.27625 14.0938 7.5C14.0938 6.72375 14.7238 6.09375 15.5 6.09375C16.2763 6.09375 16.9062 6.72375 16.9062 7.5C16.9062 8.27625 16.2763 8.90625 15.5 8.90625Z" fill="#FCFCFC"/>
<path d="M30.5 18.75C30.5 14.6081 26.3019 11.25 21.125 11.25C15.9481 11.25 11.75 14.6081 11.75 18.75C11.75 22.8919 15.9481 26.25 21.125 26.25C21.9762 26.25 22.7863 26.13 23.5719 25.9594L26.868 27.372C27.4674 27.6289 28.0615 26.9987 27.7697 26.4154L26.8775 24.6319C29.0675 23.2594 30.5 21.1481 30.5 18.75ZM18.3125 18.2812C17.5363 18.2812 16.9062 17.6512 16.9062 16.875C16.9062 16.0988 17.5363 15.4688 18.3125 15.4688C19.0887 15.4688 19.7188 16.0988 19.7188 16.875C19.7188 17.6512 19.0887 18.2812 18.3125 18.2812ZM23.9375 18.2812C23.1613 18.2812 22.5312 17.6512 22.5312 16.875C22.5312 16.0988 23.1613 15.4688 23.9375 15.4688C24.7137 15.4688 25.3438 16.0988 25.3438 16.875C25.3438 17.6512 24.7137 18.2812 23.9375 18.2812Z" fill="#FCFCFC"/>
</g>
<defs>
<clipPath id="clip0">
<rect width="30" height="30" fill="white" transform="translate(0.5)"/>
</clipPath>
</defs>
</svg>
