<svg width="30" height="26" viewBox="0 0 30 26" fill="none" xmlns="http://www.w3.org/2000/svg">
<path d="M24.2495 13.3317C23.7367 13.008 23.1618 12.7458 22.5259 12.5451C22.3919 12.5002 22.2969 12.4669 22.2411 12.4445C22.1854 12.4222 22.1181 12.3805 22.0403 12.319C21.9621 12.2575 21.9368 12.1877 21.9651 12.1097C21.9932 12.0316 22.018 11.9201 22.0403 11.7751C22.5421 10.4921 22.5421 9.49914 22.0403 8.79626C21.5267 8.11571 20.6737 7.77532 19.4795 7.77532C18.2857 7.77532 16.9134 8.10457 15.3628 8.76273L15.2621 8.79626C15.1956 8.81859 15.1202 8.83788 15.0366 8.85476C14.9528 8.87164 14.8718 8.87428 14.7938 8.8632C14.7159 8.85218 14.6601 8.81314 14.6265 8.74614C14.593 8.67914 14.5988 8.56759 14.6434 8.41138C15.1452 6.79354 15.0338 5.62776 14.3085 4.91357C13.483 4.088 12.1079 4.04897 10.1832 4.79651C8.25895 5.54423 6.35394 6.86066 4.46822 8.74637C3.04019 10.1744 1.93836 11.6137 1.16297 13.0641C0.387519 14.5148 0 15.8811 0 17.1645C0 18.3693 0.362607 19.4822 1.08764 20.5032C1.81303 21.5243 2.76955 22.3666 3.9579 23.0303C5.14596 23.6939 6.48771 24.2131 7.98268 24.5868C9.47772 24.9603 11.0119 25.1473 12.585 25.1473C14.1582 25.1473 15.6671 24.9746 17.1118 24.6287C18.5565 24.2827 19.8175 23.8199 20.8939 23.2396C21.9707 22.6596 22.9107 22.0041 23.7139 21.2731C24.5175 20.5423 25.1253 19.7785 25.5383 18.9803C25.9511 18.1828 26.1577 17.4044 26.1577 16.646C26.1577 15.932 25.9684 15.2817 25.5886 14.6961C25.2096 14.1098 24.763 13.6552 24.2495 13.3317ZM18.7858 21.0059C17.1513 22.3279 15.09 23.1173 12.6021 23.3738C10.9731 23.5301 9.44173 23.4129 8.00818 23.0224C6.57458 22.6316 5.41132 22.0238 4.51887 21.1982C3.6263 20.3723 3.12981 19.4239 3.0294 18.3527C2.87307 16.7238 3.61235 15.2484 5.24684 13.9263C6.88132 12.6039 8.94266 11.8146 11.4306 11.5581C13.0596 11.4017 14.5908 11.519 16.0242 11.9095C17.4576 12.3 18.6211 12.908 19.5138 13.7336C20.4065 14.5594 20.9027 15.5079 21.003 16.5789C21.159 18.208 20.4203 19.6834 18.7858 21.0059Z" fill="#FCFCFC"/>
<path d="M13.0875 14.069C11.9049 13.7676 10.7306 13.8739 9.5647 14.3871C8.39868 14.9002 7.55371 15.6754 7.02927 16.7132C6.50487 17.7728 6.46847 18.819 6.92041 19.851C7.37235 20.883 8.19505 21.5886 9.3889 21.9683C10.6273 22.3697 11.877 22.3029 13.1377 21.767C14.3984 21.2315 15.2796 20.3946 15.7822 19.2568C16.2839 18.1409 16.27 17.0783 15.74 16.0685C15.2098 15.0591 14.3258 14.3925 13.0875 14.069ZM11.2967 19.4913C11.0512 19.8704 10.7026 20.1356 10.2505 20.2861C9.7987 20.4369 9.38281 20.4229 9.00367 20.2443C8.62442 20.0658 8.38456 19.7841 8.28414 19.399C8.18367 19.0144 8.25618 18.6325 8.50161 18.253C8.73579 17.8845 9.07061 17.6281 9.50567 17.4833C9.94096 17.3382 10.3481 17.3437 10.7275 17.4999C11.118 17.6671 11.3692 17.9463 11.4808 18.3366C11.5923 18.727 11.531 19.1117 11.2967 19.4913ZM12.8697 17.4658C12.7917 17.6111 12.6688 17.7144 12.5016 17.7757C12.3342 17.8372 12.1723 17.8398 12.0162 17.7842C11.6817 17.6277 11.6092 17.377 11.7987 17.0311C11.8768 16.8859 11.9967 16.7828 12.1584 16.7212C12.3201 16.6598 12.479 16.6572 12.6353 16.713C12.7803 16.7685 12.8779 16.872 12.9283 17.0227C12.9785 17.173 12.959 17.3212 12.8697 17.4658Z" fill="#FCFCFC"/>
<path d="M23.915 10.1269C24.0382 10.3668 24.2275 10.5313 24.4843 10.6206C24.7411 10.6987 24.989 10.6765 25.2289 10.5536C25.4688 10.4311 25.6335 10.2414 25.7228 9.98462C25.9346 9.36 25.9711 8.70431 25.8311 8.01831C25.6919 7.33225 25.3879 6.72686 24.9196 6.20247C24.451 5.67802 23.8871 5.3126 23.2292 5.10609C22.5708 4.8997 21.907 4.8691 21.2378 5.01412C20.9696 5.06998 20.7634 5.2123 20.6182 5.44097C20.4733 5.66958 20.4288 5.91788 20.4848 6.18558C20.5294 6.45341 20.6686 6.6598 20.9026 6.80482C21.1372 6.94984 21.3881 6.99444 21.6561 6.93882C22.3592 6.79374 22.9556 6.98905 23.4469 7.52452C23.938 8.05993 24.0715 8.67916 23.8485 9.38216C23.7697 9.63872 23.7924 9.88703 23.915 10.1269Z" fill="#FCFCFC"/>
<path d="M29.8314 7.19824C29.5465 5.78703 28.9192 4.54575 27.9485 3.47475C26.9777 2.39268 25.8174 1.64232 24.4669 1.22368C23.1171 0.805209 21.7563 0.74114 20.3836 1.03118C20.071 1.09818 19.8283 1.26266 19.6554 1.52497C19.4825 1.78734 19.4295 2.07451 19.4967 2.38694C19.5635 2.69937 19.7306 2.94198 19.9988 3.1149C20.2662 3.28782 20.5565 3.34087 20.8686 3.27387C21.8395 3.07317 22.8047 3.12065 23.7641 3.4162C24.7237 3.71186 25.5494 4.24446 26.2412 5.01433C26.9327 5.77308 27.3795 6.65433 27.5803 7.65862C27.7813 8.66261 27.7255 9.62218 27.413 10.537C27.3239 10.8384 27.3516 11.1285 27.4969 11.4074C27.6417 11.6863 27.8647 11.8759 28.166 11.9764C28.4674 12.0766 28.7574 12.0544 29.0363 11.9094C29.3153 11.7644 29.505 11.5413 29.6056 11.24C30.0406 9.95694 30.1158 8.60968 29.8314 7.19824Z" fill="#FCFCFC"/>
</svg>
